<svg viewBox="0 0 381.97 527.64" xmlns="http://www.w3.org/2000/svg"><g fill="#106bb4" transform="translate(-12.76 -26.36)"><path d="m204 26.36c2.16 3.25 3.36 7 4.82 10.58q87.22 213.37 174.51 426.77c.52 1.43 1 2.86 1.39 4.34-3.27-2-6.07-4.68-9.13-7-15.34-12-32.56-21.39-50.55-28.72-38.76-15.73-80.81-22.42-122.55-22.34a342.87 342.87 0 0 0 -77.74 9.15 273.15 273.15 0 0 0 -61.34 22.37 192.06 192.06 0 0 0 -35.41 23.55 28.51 28.51 0 0 1 -4.34 2.88c1.12-4.31 3.05-8.31 4.75-12.37q62.42-152.69 124.93-305.38c16.92-41.27 33.66-82.62 50.66-123.83m-9.91 207c-24 2.6-47 15.2-61.23 34.8a75.64 75.64 0 0 0 -8.37 76.51c7.21 16.38 20.31 29.87 35.95 38.52a91.25 91.25 0 0 0 65.3 8.62 86.52 86.52 0 0 0 52.06-36.09 76.23 76.23 0 0 0 11.7-54.48 77.79 77.79 0 0 0 -13.8-32.84 94 94 0 0 0 -15.47-16.18 90.43 90.43 0 0 0 -66.14-18.87m-43.07 29c11.32-.08 22.65-.23 34-.08 5.82.39 11.62-.28 17.46.06 11 .06 22.41 1 32.55 5.74 5.61 2.8 11.06 7.11 13.16 13.24a22.42 22.42 0 0 1 -2.19 19.55c-5 7.11-13.4 10.33-21.24 13.1 8.11 1.88 16.49 4.31 22.8 10 10.34 9.32 10 27.83-.74 36.65-6.86 5.77-15.93 7.84-24.54 9.38-13.73 2.21-27.69 1.37-41.52 1.54-9.91 0-19.82.08-29.72-.14 0-1.51 0-3-.08-4.54 3.84-.36 7.74-.39 11.51-1.48a5.66 5.66 0 0 0 3.95-4c1.25-4.09 1-8.4 1.06-12.6 0-23 0-46 0-69-.17-3.75-.28-8.4-3.76-10.72-3.89-1.82-8.32-1.65-12.49-2.16a45.12 45.12 0 0 0 -.1-4.56m39.68 5.85c-2.69.7-4.39 3.33-4.74 5.93-.55 3.7-.16 7.48-.24 11.2-.31 9.07-.11 18.14 0 27.18 11 0 22.37.9 32.91-2.88a19.1 19.1 0 0 0 12.42-13.27 31.34 31.34 0 0 0 -.29-14.81c-1.13-3.61-3.09-7.2-6.42-9.29-4.34-2.91-9.63-4-14.78-4.59-6.27-.7-12.71-1.2-18.81.53m-5 49.19c0 7.5-.33 15.06 0 22.59.17 6.35-.5 12.74.23 19.07.36 2.38 1.16 5.07 3.56 6.13 3.75 1.62 8 1.4 12 1.46a57.64 57.64 0 0 0 21.78-3.36 18.82 18.82 0 0 0 11.31-12.82c1.9-7 1.9-14.84-1.65-21.3-3-5.18-8.43-8.34-14.08-9.74-10.78-3.05-22.08-1.82-33.12-2z"/><path d="m12.76 480.5a106 106 0 0 1 17.54-1.19c8 0 13.71 1.53 17.54 4.6a16.53 16.53 0 0 1 6.16 13.29c0 5.62-1.79 10.48-5.28 13.63-4.43 4.09-11 6-18.65 6a22.28 22.28 0 0 1 -4.43-.34v20.61h-12.88zm12.86 26.06a19.36 19.36 0 0 0 4.34.34c6.9 0 11.16-3.49 11.16-9.28 0-5.28-3.66-8.43-10.22-8.43a23.16 23.16 0 0 0 -5.28.43z"/><path d="m69.73 520.44c.34 5.37 5.71 7.92 11.75 7.92a34.31 34.31 0 0 0 11.52-1.78l1.7 8.77a39.39 39.39 0 0 1 -15.09 2.65c-14.14 0-22.23-8.18-22.23-21.21 0-10.56 6.56-22.23 21-22.23 13.5-.01 18.62 10.44 18.62 20.77a30.74 30.74 0 0 1 -.43 5.11zm15.27-8.85c0-3.15-1.36-8.43-7.32-8.43-5.45 0-7.66 5-8 8.43z"/><path d="m145.87 515.85c0 15.25-10.82 22.23-22 22.23-12.18 0-21.55-8-21.55-21.46s8.86-22.14 22.31-22.14c12.73-.01 21.24 8.76 21.24 21.37zm-30.15.43c0 7.15 3 12.52 8.52 12.52 5.11 0 8.26-5 8.26-12.6 0-6.13-2.38-12.43-8.26-12.43-6.13-.02-8.52 6.37-8.52 12.5z"/><path d="m153.88 509.46c0-5.45-.17-10-.34-14h11.24l.6 5.79h.17c3.07-4.34 7.84-6.73 13.88-6.73 9.11 0 17.29 7.92 17.29 21.21 0 15.16-9.62 22.31-18.91 22.31-5 0-8.94-2-10.82-4.77h-.17v20.73h-12.94zm12.95 9.79a13.47 13.47 0 0 0 .26 2.72 7.83 7.83 0 0 0 7.58 6.13c5.62 0 8.94-4.68 8.94-11.75 0-6.64-3-11.67-8.77-11.67a8.13 8.13 0 0 0 -7.75 6.56 10 10 0 0 0 -.26 2.3z"/><path d="m204.81 476.67h12.94v60.47h-12.94z"/><path d="m238.19 520.44c.34 5.37 5.71 7.92 11.75 7.92a34.32 34.32 0 0 0 11.5-1.79l1.7 8.77a39.37 39.37 0 0 1 -15.07 2.66c-14.14 0-22.23-8.18-22.23-21.21 0-10.56 6.56-22.23 21-22.23 13.46 0 18.57 10.48 18.57 20.78a30.77 30.77 0 0 1 -.43 5.11zm15.25-8.86c0-3.15-1.36-8.43-7.33-8.43-5.45 0-7.66 5-8 8.43z"/><path d="m273.62 480.5a106 106 0 0 1 17.54-1.19c8 0 13.71 1.53 17.54 4.6a16.53 16.53 0 0 1 6.13 13.29c0 5.62-1.79 10.48-5.28 13.63-4.43 4.09-11 6-18.65 6a22.3 22.3 0 0 1 -4.43-.34v20.61h-12.85zm12.86 26.06a19.38 19.38 0 0 0 4.34.34c6.9 0 11.16-3.49 11.16-9.28 0-5.28-3.66-8.43-10.22-8.43a23.18 23.18 0 0 0 -5.28.43z"/><path d="m321.91 509.2c0-6.13-.09-10.14-.34-13.71h11.07l.51 7.67h.34c2.13-6.13 7.15-8.69 11.24-8.69a12.92 12.92 0 0 1 2.73.26v12.17a19.38 19.38 0 0 0 -3.49-.34c-4.77 0-8 2.56-8.86 6.56a15.26 15.26 0 0 0 -.26 2.89v21.12h-12.94z"/><path d="m394.73 515.85c0 15.25-10.82 22.23-22 22.23-12.18 0-21.55-8-21.55-21.46s8.86-22.14 22.31-22.14c12.72-.01 21.24 8.76 21.24 21.37zm-30.15.43c0 7.15 3 12.52 8.52 12.52 5.11 0 8.26-5 8.26-12.6 0-6.13-2.38-12.43-8.26-12.43-6.1-.02-8.52 6.37-8.52 12.5z"/></g></svg>